<?xml version="1.0" standalone="no"?>
<!DOCTYPE svg PUBLIC "-//W3C//DTD SVG 20010904//EN"
 "http://www.w3.org/TR/2001/REC-SVG-20010904/DTD/svg10.dtd">
<svg version="1.0" xmlns="http://www.w3.org/2000/svg"
 width="325.000000pt" height="325.000000pt" viewBox="0 0 325.000000 325.000000"
 preserveAspectRatio="xMidYMid meet">
<metadata>
Created by potrace 1.14, written by Peter Selinger 2001-2017
</metadata>
<g transform="translate(0.000000,325.000000) scale(0.100000,-0.100000)"
fill="#000000" stroke="none">
<path d="M675 3150 c-42 -55 -74 -100 -72 -100 3 0 39 43 81 96 42 53 76 93
76 89 0 -3 -37 -55 -83 -113 -46 -59 -94 -122 -106 -140 -12 -18 -26 -30 -31
-27 -11 7 -105 -121 -105 -143 0 -9 -5 -17 -12 -17 -6 0 -15 -4 -20 -9 -5 -5
-3 -6 5 -2 6 4 12 6 12 4 0 -5 -101 -202 -106 -207 -12 -12 31 91 57 139 23
43 25 49 8 30 -33 -37 -70 -124 -139 -330 -35 -102 -66 -189 -70 -193 -4 -5
-11 21 -15 57 -3 36 -10 66 -13 66 -12 0 -142 -269 -142 -293 0 -15 13 -30 41
-47 81 -50 80 -48 78 -181 0 -66 -5 -119 -10 -119 -6 0 -5 -9 1 -21 22 -41 6
-338 -26 -479 -21 -93 -54 -192 -71 -211 -10 -12 -13 -39 -11 -100 l3 -84 93
-39 92 -39 0 -41 c0 -23 5 -61 11 -86 6 -25 13 -55 14 -67 2 -12 17 -42 35
-67 17 -26 38 -62 46 -82 l15 -36 -28 20 c-45 32 -63 56 -66 90 -3 25 -14 39
-48 61 -24 16 -72 55 -107 86 l-62 57 0 -111 c0 -67 4 -111 10 -111 6 0 10 14
10 30 0 113 49 -140 52 -270 0 -25 4 -50 9 -55 4 -6 9 -42 11 -80 l3 -70 50 0
50 0 8 150 c4 83 11 174 15 204 l7 54 53 -48 c55 -49 73 -54 51 -13 -8 15 4 8
37 -22 27 -25 65 -56 86 -68 l36 -23 37 25 c19 14 57 33 83 42 63 24 89 40
140 88 23 22 42 36 42 31 0 -5 11 2 25 15 30 28 90 119 83 126 -3 2 -21 -22
-41 -54 -20 -33 -44 -65 -54 -73 -10 -8 -1 9 19 36 46 65 78 129 93 185 7 29
17 46 29 48 17 4 18 -4 13 -85 -6 -107 -7 -112 -35 -148 -23 -29 -23 -46 0
-28 7 5 23 10 35 11 11 0 40 10 62 20 39 19 41 19 41 2 0 -10 -4 -21 -10 -25
-5 -3 -6 -13 -3 -22 4 -10 2 -14 -4 -10 -7 5 -9 0 -6 -13 3 -11 -9 -49 -26
-87 -26 -55 -28 -64 -11 -48 38 35 32 6 -9 -38 -22 -24 -37 -47 -33 -51 4 -4
2 -6 -4 -4 -13 4 -84 -34 -84 -45 0 -4 -6 -5 -12 -1 -7 4 -10 3 -5 -1 9 -10
-86 -56 -123 -60 -83 -9 -112 -17 -128 -32 -10 -10 -27 -23 -38 -30 -17 -11
-17 -12 9 -12 19 -1 26 3 21 11 -5 8 -3 8 7 2 33 -21 69 -7 73 28 2 11 10 15
45 22 l35 6 -22 -23 c-12 -13 -22 -30 -22 -37 0 -8 14 2 31 23 49 59 108 83
201 79 l77 -3 -24 -54 -24 -55 156 0 155 0 58 53 c64 59 97 70 255 83 43 3 90
10 104 15 32 13 171 -9 171 -26 0 -11 39 -114 47 -124 2 -2 5 -2 8 1 3 3 -3
30 -14 59 -35 99 -32 115 8 35 36 -72 61 -110 61 -94 0 4 -9 23 -21 42 -14 23
-20 49 -18 75 3 38 -15 76 -32 66 -4 -3 -16 9 -25 27 -9 18 -23 41 -32 51 -19
21 -8 35 13 17 13 -11 16 -11 13 1 -2 8 5 14 17 14 11 0 25 7 32 15 11 13 12
13 13 -1 0 -9 -10 -29 -21 -43 -17 -21 -24 -25 -30 -14 -7 10 -9 10 -9 0 0
-14 8 -18 63 -27 36 -6 114 -62 102 -73 -3 -3 -15 4 -28 15 -12 11 -33 26 -47
32 -21 10 -22 10 -8 -1 9 -7 25 -18 35 -25 14 -10 15 -14 5 -21 -11 -7 -11
-18 -3 -48 6 -21 13 -50 15 -64 3 -14 3 -2 2 25 -2 28 -5 56 -7 64 -2 7 2 16
9 18 6 3 12 -3 12 -12 0 -15 3 -14 18 3 9 12 29 24 43 27 23 6 31 1 56 -37 63
-92 88 -127 93 -128 3 0 26 43 52 94 44 89 45 94 26 100 -15 3 -18 2 -10 -6 8
-8 4 -24 -15 -59 l-26 -49 -60 75 c-57 71 -62 74 -79 58 -17 -15 -18 -15 -18
11 0 15 5 37 11 49 10 21 10 21 -5 3 -9 -11 -16 -37 -16 -58 0 -22 -5 -38 -11
-38 -15 0 -4 87 12 106 15 19 -6 44 -37 44 -35 0 -38 17 -7 34 15 8 44 35 63
59 46 58 79 81 45 30 -30 -44 -31 -66 -4 -109 38 -62 107 -87 179 -64 25 8 23
10 -18 14 -23 3 -91 63 -92 81 0 6 5 3 10 -5 17 -27 11 0 -10 40 -26 52 -25
129 6 245 3 15 1 13 -9 -5 -8 -14 -18 -44 -22 -67 -5 -35 -15 -48 -58 -82
-112 -86 -262 -151 -370 -160 -5 -1 -5 -5 -2 -11 3 -6 -1 -7 -9 -4 -34 13 -13
71 28 79 17 4 86 33 152 66 116 56 214 128 267 196 10 13 24 23 32 23 7 0 16
16 20 36 7 41 17 36 34 -18 7 -20 39 -66 71 -103 33 -37 57 -72 54 -76 -3 -5
18 -9 46 -8 28 1 46 5 39 9 -6 4 -19 6 -28 3 -19 -5 -71 62 -89 114 -19 56 2
272 28 288 5 3 14 -12 21 -32 7 -21 23 -55 36 -76 13 -21 21 -43 17 -49 -4 -7
-3 -8 4 -4 7 4 23 -16 42 -54 17 -33 28 -60 25 -60 -3 0 6 -11 20 -25 27 -28
33 -55 13 -55 -28 -1 24 -21 98 -38 l78 -19 39 28 c54 39 139 69 195 69 54 0
114 -25 184 -75 26 -19 50 -35 53 -35 3 0 5 190 4 423 -1 324 -4 418 -12 403
-12 -18 -64 -92 -213 -303 -43 -61 -104 -147 -134 -191 -30 -44 -68 -88 -84
-97 -16 -10 -60 -45 -98 -77 -38 -33 -71 -58 -74 -56 -5 5 93 91 142 126 18
12 99 117 181 234 198 282 225 322 262 395 l31 62 0 187 0 186 -27 -6 c-16 -4
-23 -3 -18 1 16 13 11 37 -9 46 -19 7 -19 8 0 26 10 10 28 16 39 14 11 -2 0 6
-25 17 -25 12 -46 25 -48 29 -1 4 -16 6 -32 5 -18 -1 -28 3 -27 10 1 6 -6 10
-17 9 -13 -1 -15 2 -7 10 7 7 32 4 83 -11 40 -12 76 -22 81 -22 4 0 7 19 7 43
0 42 -1 43 -32 44 -18 1 -55 9 -83 18 -58 20 -158 92 -148 108 3 5 1 7 -4 4
-14 -9 -47 29 -37 44 4 7 3 10 -2 6 -5 -3 -22 14 -38 36 l-29 42 29 -26 c66
-60 238 -155 317 -174 26 -7 27 -6 27 31 0 33 -10 50 -56 104 -30 36 -78 99
-106 140 -28 41 -79 109 -113 150 -40 50 -72 102 -94 155 -67 167 -74 175
-206 263 -66 44 -140 101 -165 126 -24 25 -52 46 -62 46 -23 0 -23 -6 7 -59
31 -53 31 -60 3 -34 -43 38 -174 117 -308 185 l-134 68 -632 0 -632 -1 -77
-99z m1421 -178 c-2 -4 4 -14 16 -21 11 -7 17 -8 13 -2 -3 6 14 -1 38 -16 37
-22 44 -31 39 -47 -4 -12 -6 -82 -4 -156 l3 -134 -38 43 c-20 24 -66 82 -102
129 -63 81 -91 104 -189 148 -2 1 11 22 28 47 23 32 35 64 43 114 l11 69 74
-83 c40 -45 71 -86 68 -91z m-1303 100 c-3 -23 -10 -42 -14 -42 -11 0 -11 7 2
53 13 49 19 44 12 -11z m1779 -104 c21 -16 61 -111 56 -134 -2 -10 -20 -22
-46 -30 -37 -10 -43 -10 -38 1 8 23 -21 119 -59 195 -19 38 -35 73 -35 76 0 4
24 -16 53 -44 28 -28 59 -57 69 -64z m-1655 -70 c44 -34 51 -43 43 -58 -17
-32 -10 -36 13 -9 20 24 33 28 127 38 58 6 125 14 150 18 38 5 43 4 34 -8 -15
-18 -86 -186 -109 -258 -11 -35 -24 -55 -36 -58 -23 -6 -25 -23 -4 -23 12 0
15 -13 15 -57 0 -51 26 -186 45 -235 6 -16 -1 -18 -76 -18 -46 0 -111 -7 -144
-15 -77 -18 -74 -19 -85 8 -9 22 -9 21 -9 -4 -1 -20 -13 -34 -53 -61 -64 -42
-165 -133 -180 -162 -10 -18 -9 -19 4 -9 8 7 18 10 21 6 4 -3 7 -2 7 4 0 18
61 78 80 79 11 1 17 -2 14 -7 -2 -4 -12 -6 -22 -3 -15 5 -15 4 1 -6 14 -9 22
-9 35 1 9 8 -10 -16 -42 -51 -33 -36 -61 -67 -63 -69 -2 -3 -18 10 -37 28 -32
31 -33 34 -39 139 -3 59 -11 122 -18 141 -9 27 -9 38 1 54 10 17 10 19 -5 13
-12 -4 -37 12 -87 59 -38 37 -80 71 -94 77 -13 6 -24 14 -24 18 0 4 30 31 67
61 37 30 89 76 116 103 42 42 52 48 68 38 10 -7 20 -8 24 -2 3 5 -3 13 -12 19
-17 9 -14 18 29 103 26 51 56 123 68 161 l22 67 51 -41 c29 -23 76 -59 104
-81z m960 54 c-15 -15 -27 -31 -27 -35 0 -4 20 -17 45 -30 l46 -23 -138 -13
c-164 -15 -336 -49 -424 -85 -35 -14 -64 -24 -66 -22 -2 2 13 27 32 56 36 53
35 69 -2 70 -7 0 -13 4 -13 10 0 10 132 52 221 70 74 14 198 27 283 29 l70 1
-27 -28z m428 -17 c90 -11 215 -50 215 -67 0 -5 -9 -4 -19 2 -38 20 -40 10 -9
-35 17 -25 29 -48 25 -51 -4 -4 -10 2 -13 12 -4 10 -16 32 -27 47 -15 23 -22
26 -33 16 -11 -9 -12 -14 -3 -19 19 -13 -74 -21 -111 -10 -19 5 -52 10 -72 10
-30 0 -38 4 -38 18 0 10 5 23 12 30 10 10 7 16 -10 28 -30 21 -28 37 6 30 15
-2 50 -7 77 -11z m-1784 -22 c-25 -33 -78 -93 -70 -78 3 5 23 31 43 58 41 50
61 65 27 20z m2183 -35 c33 -21 61 -40 64 -42 2 -2 -24 -4 -57 -4 -34 0 -61 4
-61 9 0 4 8 6 18 3 13 -4 12 -2 -3 7 -11 6 -21 13 -23 14 -1 1 -7 16 -12 34
-6 23 -6 30 3 24 7 -4 39 -24 71 -45z m-267 -64 c-3 -3 -12 -4 -19 -1 -8 3 -5
6 6 6 11 1 17 -2 13 -5z m385 -56 l19 -43 -30 31 c-21 21 -29 38 -25 48 8 21
12 17 36 -36z m-144 21 c52 -40 193 -184 215 -219 12 -19 36 -71 54 -115 l33
-79 -46 44 c-25 25 -84 94 -131 153 -77 98 -84 111 -75 132 10 21 6 27 -31 58
-24 19 -51 37 -62 40 -18 4 -18 5 -2 6 11 0 31 -8 45 -20z m-840 4 c-16 -2
-40 -2 -55 0 -16 2 -3 4 27 4 30 0 43 -2 28 -4z m122 -1 c0 -4 -16 -6 -35 -4
-19 2 -35 6 -35 8 0 2 16 4 35 4 19 0 35 -4 35 -8z m631 -9 c13 -15 12 -15 -8
-4 -24 12 -29 21 -14 21 5 0 15 -7 22 -17z m-911 -8 c-41 -8 -76 -12 -78 -10
-6 6 80 23 118 23 20 0 2 -6 -40 -13z m371 -35 c30 -28 44 -45 32 -38 -13 7
-23 16 -23 20 0 3 -14 10 -31 13 -21 5 -27 10 -19 15 9 5 6 12 -11 24 -13 9
-19 16 -13 16 6 0 35 -23 65 -50z m765 -12 c22 -24 48 -60 57 -81 15 -34 11
-32 -53 34 -61 63 -76 89 -51 89 4 0 25 -19 47 -42z m-1223 25 c3 -5 -5 -9
-16 -9 -12 -1 -33 -5 -47 -8 -21 -5 -20 -4 5 8 34 17 52 19 58 9z m-106 -37
c-17 -14 -17 -15 5 -22 26 -9 33 -11 48 -13 6 0 10 -6 10 -12 0 -8 -4 -8 -12
-1 -7 6 -17 10 -21 10 -4 0 -22 6 -38 13 l-31 12 24 13 c30 17 38 17 15 0z
m90 -53 c-4 -3 1 -12 11 -20 15 -13 15 -13 -6 -3 -19 9 -23 30 -5 30 4 0 3 -3
0 -7z m158 -23 c3 -6 -1 -7 -9 -4 -18 7 -21 14 -7 14 6 0 13 -4 16 -10z m-51
-59 c-5 -6 -74 40 -74 50 0 5 18 -4 39 -19 21 -15 37 -29 35 -31z m803 -193
c28 -40 65 -100 84 -133 18 -33 79 -108 135 -166 106 -111 204 -241 204 -268
-1 -9 -8 -3 -16 14 -23 42 -180 200 -236 236 -27 17 -48 36 -48 43 0 15 -74
170 -99 205 -24 35 -82 141 -77 141 2 0 26 -33 53 -72z m-2028 16 l31 -26 -36
-24 c-20 -14 -38 -23 -40 -21 -2 2 1 20 7 41 8 30 8 41 -3 47 -8 6 -9 9 -1 9
6 0 25 -12 42 -26z m-87 -20 c-18 -14 -32 -31 -31 -37 1 -7 -1 -20 -5 -29 -15
-33 -1 -40 29 -17 17 12 -12 -19 -63 -69 -50 -50 -101 -106 -113 -124 l-21
-33 7 30 c16 76 76 178 141 241 36 35 71 64 77 64 7 0 -3 -12 -21 -26z m1986
-83 c41 -21 51 -34 33 -46 -10 -5 -15 -36 -27 -150 -3 -33 -7 -62 -9 -64 -3
-2 -12 11 -22 29 -51 93 -76 115 -155 143 -16 6 -16 10 7 43 14 21 25 51 25
70 0 64 7 68 59 30 25 -18 65 -43 89 -55z m-2209 -129 l1 -63 -55 -25 c-61
-26 -90 -31 -82 -11 3 6 21 48 40 93 19 45 45 101 58 125 l23 44 7 -50 c4 -27
8 -78 8 -113z m414 81 c-1 -22 -31 -147 -68 -279 -63 -226 -116 -365 -164
-433 -12 -16 -21 -35 -21 -43 0 -7 -5 -31 -11 -53 l-12 -40 -19 55 c-28 79
-20 122 36 207 50 75 107 237 167 478 21 84 36 125 51 138 30 25 43 16 41 -30z
m1427 -59 c0 0 -5 -16 -11 -35 -6 -19 -13 -40 -15 -47 -3 -9 -10 -7 -26 8 -13
12 -35 24 -50 27 -33 7 -33 4 -8 45 11 18 20 43 20 56 0 22 2 21 45 -15 25
-20 45 -38 45 -39z m-322 -138 c34 -27 62 -50 62 -51 0 -2 -28 -1 -62 1 -35 3
-91 1 -125 -4 l-63 -9 0 36 c0 20 -3 74 -7 121 l-6 85 69 -65 c38 -36 97 -87
132 -114z m-448 148 c0 -2 -7 -4 -15 -4 -8 0 -15 4 -15 10 0 5 7 7 15 4 8 -4
15 -8 15 -10z m122 -154 c37 -27 37 -28 18 -45 -15 -14 -20 -31 -20 -69 l0
-51 -26 43 c-18 30 -34 45 -55 49 -34 6 -34 7 -15 36 8 12 17 45 19 72 3 28 6
52 6 55 1 3 9 -10 18 -29 9 -18 34 -46 55 -61z m-454 -24 c17 -38 90 -75 160
-82 l61 -7 -35 -32 c-53 -50 -78 -116 -70 -187 3 -33 11 -68 17 -79 24 -46 -1
-35 -76 32 -44 39 -95 78 -112 87 -37 18 -38 23 -18 107 8 33 15 83 15 111 0
70 35 100 58 50z m993 -121 c37 -24 89 -55 116 -69 97 -49 90 -77 -15 -58 -31
6 -83 14 -114 18 -50 5 -58 9 -58 28 0 43 -16 48 -36 10 -17 -34 -27 -40 -105
-64 -47 -14 -106 -41 -132 -59 -48 -33 -59 -45 -31 -34 12 4 10 -6 -11 -47
-14 -28 -25 -54 -23 -56 3 -2 20 10 39 26 19 16 37 29 41 30 3 0 14 -22 23
-49 18 -54 76 -116 119 -127 14 -3 38 -2 53 4 26 8 25 9 -17 9 -40 0 -48 5
-82 43 -42 47 -49 87 -20 114 18 15 20 14 37 -18 21 -38 56 -62 75 -51 12 8
10 65 -4 98 -7 14 -3 17 29 17 64 0 75 -12 75 -85 0 -60 -2 -65 -32 -89 -18
-14 -27 -26 -20 -26 24 0 69 58 81 104 7 29 8 60 2 91 l-9 47 40 -5 c22 -3 42
-8 46 -12 3 -3 6 -31 5 -63 -1 -54 -1 -56 12 -32 8 14 21 46 30 72 10 29 28
56 50 72 l33 26 15 -38 c8 -20 17 -62 21 -93 l7 -56 -65 -61 c-36 -33 -97 -80
-136 -103 -84 -50 -94 -64 -12 -19 103 59 175 113 287 215 60 55 106 95 102
88 -5 -7 1 -21 13 -33 11 -11 20 -17 20 -13 0 3 3 4 6 0 4 -3 -8 -24 -26 -47
-17 -22 -26 -40 -20 -40 10 0 10 -3 0 -15 -7 -8 -17 -12 -24 -8 -7 4 -6 1 1
-7 10 -11 22 -7 65 19 33 20 46 26 36 14 -10 -11 -18 -24 -18 -29 0 -6 -16
-25 -35 -44 -23 -22 -31 -36 -23 -41 14 -9 -60 -48 -127 -65 -27 -8 -75 -14
-105 -14 -39 0 -51 -3 -40 -10 8 -5 26 -10 40 -10 40 0 10 -16 -54 -29 -65
-12 -156 -13 -196 -2 -24 7 -24 7 -5 19 28 16 5 14 -24 -2 -23 -13 -23 -14 -5
-19 49 -15 144 -27 206 -27 37 0 68 -4 68 -9 0 -11 -128 -131 -140 -131 -6 0
-10 -4 -10 -10 0 -5 10 -10 23 -10 14 0 18 3 10 8 -9 6 3 20 38 46 27 22 62
54 77 72 21 25 43 37 99 53 40 11 77 22 83 26 22 13 8 -11 -27 -50 -21 -22
-14 -17 16 12 51 51 91 81 91 68 0 -4 -16 -26 -35 -50 -20 -24 -32 -46 -26
-49 5 -3 12 0 14 6 3 8 6 6 6 -4 1 -10 6 -17 12 -15 22 4 19 -20 -4 -30 -20
-9 -23 -8 -24 10 -4 41 -20 38 -100 -16 -64 -44 -91 -56 -136 -61 -86 -11 -76
-23 11 -14 78 8 155 27 225 53 20 8 40 15 42 15 12 0 4 -58 -9 -63 -7 -3 -42
-61 -76 -129 -34 -68 -72 -136 -84 -153 -13 -16 -26 -37 -31 -45 -24 -42 32
21 66 73 l38 58 30 -60 c50 -98 39 -149 -50 -240 -93 -96 -226 -176 -356 -214
-51 -15 -51 -15 -77 12 l-26 27 59 42 c32 23 71 56 87 73 16 17 -20 -6 -79
-50 -114 -85 -193 -131 -227 -131 -11 0 -37 9 -58 19 -20 10 -116 52 -212 92
-195 81 -228 99 -284 158 l-40 41 42 38 c23 22 42 45 42 52 0 8 -16 -5 -35
-27 -42 -50 -87 -67 -175 -67 -84 0 -145 27 -192 85 -53 66 -53 70 -5 49 41
-18 71 -25 162 -34 22 -3 56 -10 75 -15 45 -14 130 -14 130 0 0 5 -5 7 -11 4
-21 -13 -94 5 -108 27 -11 18 -9 25 27 62 50 52 75 96 53 96 -5 0 -11 -10 -15
-23 -5 -22 -86 -106 -86 -90 0 4 -6 -1 -13 -11 -8 -11 -20 -16 -28 -13 -10 4
-8 6 6 7 40 4 -28 18 -89 19 -54 1 -61 4 -92 37 -19 19 -40 56 -48 82 -7 26
-13 48 -12 49 1 1 33 -14 71 -32 39 -19 84 -37 100 -40 26 -4 24 -2 -10 12
-97 42 -160 79 -164 97 -3 17 2 16 45 -9 166 -95 189 -105 243 -111 41 -4 52
-3 41 5 -8 6 -25 11 -38 11 -40 0 -100 38 -130 82 -37 55 -65 109 -59 115 14
13 45 8 67 -12 14 -12 43 -32 65 -45 l40 -23 -36 39 c-57 61 -62 77 -37 109
l21 26 24 -43 c31 -55 82 -108 103 -108 12 0 6 12 -22 40 -21 23 -38 51 -38
64 0 27 29 67 36 49 11 -26 46 -63 60 -63 16 0 19 56 4 80 -14 23 10 31 41 13
32 -19 49 -73 38 -118 -8 -28 -7 -29 7 -10 10 13 14 36 12 68 -2 26 -2 47 0
47 6 0 124 -68 192 -110 211 -133 445 -217 650 -234 l65 -5 -70 33 c-95 44
-285 171 -285 190 0 3 17 7 38 7 20 1 -3 6 -53 11 -103 10 -155 6 -80 -6 37
-6 70 -23 130 -66 44 -31 116 -78 160 -104 87 -50 81 -55 -40 -27 -174 40
-311 97 -430 178 l-50 34 35 -1 c19 -1 41 -2 49 -1 22 2 3 15 -27 18 -34 5
-119 31 -154 50 -41 20 -99 74 -92 85 3 5 -2 16 -12 24 -11 9 2 4 27 -10 54
-30 59 -31 59 -10 0 9 -6 14 -13 11 -7 -3 -13 3 -13 13 0 17 3 17 54 -2 43
-16 56 -18 65 -8 9 10 9 11 0 6 -7 -4 -21 -2 -30 3 -15 9 -13 11 12 9 57 -2
62 1 35 22 -14 11 -20 19 -15 19 6 0 25 -13 43 -28 l33 -29 -33 4 c-24 3 -29
1 -18 -6 13 -9 13 -11 0 -20 -11 -7 -11 -10 -2 -10 7 0 15 6 18 14 9 23 57 12
122 -29 71 -44 246 -113 305 -120 31 -4 24 -1 -25 13 -72 20 -150 68 -210 129
-52 54 -108 151 -108 188 0 27 31 156 47 195 3 8 5 26 4 39 -2 14 0 49 4 79 6
49 9 55 41 68 54 23 194 43 253 38 41 -4 70 -16 122 -49z m1303 9 c18 -7 18
-8 -3 -16 -16 -5 -27 -3 -38 7 -8 8 -19 13 -24 10 -5 -4 -9 -2 -9 4 0 11 42 8
74 -5z m-2475 -199 l33 -58 -35 -36 c-32 -33 -57 -75 -84 -141 -9 -21 -12 -8
-18 74 -8 107 -3 199 16 286 l12 54 21 -60 c13 -34 37 -87 55 -119z m1528 114
c3 -11 10 -16 17 -12 8 5 8 3 0 -8 -6 -8 -11 -25 -12 -39 -1 -18 1 -21 8 -10
5 8 6 18 4 22 -3 4 0 8 5 8 6 0 11 -2 11 -5 0 -18 -44 -86 -80 -125 l-41 -45
5 35 c3 19 8 70 12 112 3 43 10 75 15 72 5 -3 9 1 9 9 0 22 41 9 47 -14z
m-1478 -96 c1 -12 5 -33 11 -48 16 -42 -6 -20 -43 43 -52 89 -53 100 -8 61 22
-19 40 -44 40 -56z m945 -62 c20 -22 34 -101 19 -101 -26 0 -67 77 -57 105 8
20 17 19 38 -4z m-871 -141 l37 -50 -26 0 c-26 0 -94 -59 -94 -82 0 -6 -11 -8
-25 -6 -28 6 -33 -6 -9 -20 16 -9 16 -11 0 -33 -9 -13 -16 -28 -16 -34 1 -5 8
2 16 18 8 15 18 27 23 27 20 0 19 -15 -3 -41 -13 -15 -30 -42 -37 -59 -8 -16
-17 -30 -21 -30 -5 0 -8 1 -8 3 0 1 -11 47 -25 100 l-25 98 22 30 c23 30 135
129 147 129 4 0 24 -22 44 -50z m1818 33 c13 -16 12 -17 -3 -4 -10 7 -18 15
-18 17 0 8 8 3 21 -13z m326 -19 c64 -9 117 -22 124 -30 23 -28 1 -58 -70 -96
l-70 -36 -25 41 c-13 23 -42 63 -65 89 -45 51 -50 62 -23 54 9 -2 68 -12 129
-22z m-129 -27 l31 -43 -24 -30 c-13 -16 -32 -55 -41 -86 l-18 -57 -91 -36
c-50 -19 -95 -35 -99 -35 -5 0 -5 39 -2 88 l6 87 42 35 c23 19 63 54 88 77 25
24 52 43 61 43 8 0 30 -19 47 -43z m-1943 -77 l29 -30 -35 0 c-19 0 -44 -7
-55 -15 -20 -15 -84 -21 -84 -7 0 4 15 25 34 45 42 46 72 48 111 7z m624 -117
c24 -24 41 -43 37 -43 -5 0 -39 16 -77 36 -63 33 -72 42 -94 91 -14 29 -25 56
-25 60 0 6 67 -55 159 -144z m1390 103 c12 -18 21 -40 21 -47 0 -8 -27 -29
-60 -47 -33 -18 -60 -29 -60 -25 2 52 49 153 71 153 4 0 17 -15 28 -34z
m-1953 -121 c7 -19 14 -44 14 -56 0 -18 -2 -20 -16 -8 -19 16 -44 63 -44 84 0
28 31 15 46 -20z m1099 15 c3 -6 -1 -7 -9 -4 -18 7 -21 14 -7 14 6 0 13 -4 16
-10z m-62 -7 c-7 -2 -19 -2 -25 0 -7 3 -2 5 12 5 14 0 19 -2 13 -5z m559 -288
l-9 -110 -2 126 c0 69 2 129 7 133 12 13 13 -32 4 -149z m-352 -631 c0 -14 5
-34 10 -45 16 -29 2 -44 -22 -22 -35 32 -41 51 -21 77 21 28 33 25 33 -10z
m45 -84 c3 -5 -1 -10 -9 -10 -9 0 -16 5 -16 10 0 6 4 10 9 10 6 0 13 -4 16
-10z m-1255 -84 c0 -2 -8 -10 -17 -17 -16 -13 -17 -12 -4 4 13 16 21 21 21 13z
m659 -12 c2 -2 -25 -4 -60 -3 -38 0 -119 -12 -198 -30 -74 -17 -158 -33 -185
-36 -53 -5 -8 7 234 57 99 21 193 26 209 12z m545 -69 c61 -77 60 -74 46 -95
-10 -17 -7 -20 -86 88 -25 34 -42 67 -39 73 11 16 20 8 79 -66z m-399 40 c45
-9 58 -13 35 -13 -19 0 -66 8 -105 19 -72 19 -53 17 70 -6z m125 -26 c0 -6 -4
-7 -10 -4 -5 3 -10 11 -10 16 0 6 5 7 10 4 6 -3 10 -11 10 -16z m-792 -26
c-16 -2 -40 -2 -55 0 -16 2 -3 4 27 4 30 0 43 -2 28 -4z"/>
<path d="M2146 2917 c3 -9 10 -17 15 -17 5 0 9 -6 9 -14 0 -8 4 -18 10 -21 6
-4 9 4 8 19 -1 14 -4 23 -7 21 -2 -3 -13 3 -23 12 -18 16 -18 16 -12 0z"/>
<path d="M2132 2895 c0 -11 3 -29 8 -40 11 -25 11 1 0 35 -6 20 -8 21 -8 5z"/>
<path d="M2151 2815 c0 -11 8 -56 18 -100 11 -44 19 -66 19 -50 0 35 -35 180
-37 150z"/>
<path d="M2511 2993 c7 -12 15 -20 18 -17 3 2 -3 12 -13 22 -17 16 -18 16 -5
-5z"/>
<path d="M2554 2926 c11 -9 24 -16 30 -16 12 0 7 5 -24 19 -24 11 -24 11 -6
-3z"/>
<path d="M770 2896 c0 -7 -11 -51 -24 -96 l-24 -82 45 -41 c25 -23 48 -43 52
-45 3 -1 21 35 39 79 l33 81 -53 58 c-56 61 -68 69 -68 46z"/>
<path d="M1140 2808 c-147 -41 -135 -34 -163 -96 -14 -31 -29 -69 -32 -85 -7
-26 -6 -27 20 -17 14 5 45 10 69 10 42 0 42 0 88 78 60 101 70 122 61 121 -4
0 -24 -5 -43 -11z"/>
<path d="M552 2544 c-74 -50 -94 -74 -58 -74 6 0 35 -12 64 -26 l52 -26 50 40
c28 23 56 43 63 45 11 4 -69 98 -83 97 -3 -1 -42 -26 -88 -56z"/>
<path d="M795 2547 c-16 -28 -31 -57 -33 -64 -3 -10 77 -73 93 -73 6 0 65 126
65 138 0 8 -75 52 -87 52 -4 0 -21 -24 -38 -53z"/>
<path d="M1029 2475 c-3 -2 -27 -6 -55 -8 -55 -4 -52 5 -32 -104 l11 -63 82 0
81 0 -25 90 c-18 66 -29 90 -41 90 -9 0 -19 -2 -21 -5z"/>
<path d="M725 2352 l-60 -52 0 -105 0 -106 30 38 c16 21 48 57 70 80 l41 42
-10 77 -11 77 -60 -51z"/>
<path d="M697 1999 c7 -7 15 -10 18 -7 3 3 -2 9 -12 12 -14 6 -15 5 -6 -5z"/>
<path d="M660 1980 c0 -15 15 -19 30 -9 8 5 13 9 10 10 -3 0 -13 2 -22 4 -10
2 -18 -1 -18 -5z"/>
<path d="M2358 2903 c7 -3 16 -2 19 1 4 3 -2 6 -13 5 -11 0 -14 -3 -6 -6z"/>
<path d="M2398 2893 c7 -3 16 -2 19 1 4 3 -2 6 -13 5 -11 0 -14 -3 -6 -6z"/>
<path d="M2420 2869 c-11 -19 -10 -20 9 -9 22 11 29 30 11 30 -5 0 -14 -9 -20
-21z"/>
<path d="M1592 1815 c-71 -13 -122 -36 -122 -55 0 -5 7 -7 15 -4 8 4 15 10 15
15 0 13 95 37 185 47 63 7 69 9 30 10 -27 0 -83 -6 -123 -13z"/>
<path d="M1825 1820 c3 -6 20 -10 37 -10 38 0 34 5 -10 13 -21 4 -31 3 -27 -3z"/>
<path d="M1841 1460 c-13 -11 -19 -20 -14 -20 6 0 18 9 28 20 23 25 17 25 -14
0z"/>
<path d="M1130 1330 c8 -5 20 -10 25 -10 6 0 3 5 -5 10 -8 5 -19 10 -25 10 -5
0 -3 -5 5 -10z"/>
<path d="M1380 1328 c0 -7 10 -14 21 -15 12 -1 20 -1 18 0 -2 2 -12 9 -21 16
-15 11 -18 11 -18 -1z"/>
<path d="M1201 1295 c9 -8 119 -55 119 -50 0 3 -25 16 -56 30 -55 24 -72 30
-63 20z"/>
<path d="M2260 1238 c0 -4 4 -8 9 -8 6 0 12 4 15 8 3 5 -1 9 -9 9 -8 0 -15 -4
-15 -9z"/>
<path d="M2129 1223 c-13 -16 -12 -17 4 -4 16 13 21 21 13 21 -2 0 -10 -8 -17
-17z"/>
<path d="M987 1091 c-41 -26 -46 -36 -10 -17 17 9 35 20 38 26 8 13 6 12 -28
-9z"/>
<path d="M1511 846 c-10 -12 -8 -13 9 -9 25 7 37 23 17 23 -8 0 -20 -6 -26
-14z"/>
<path d="M1448 843 c7 -3 16 -2 19 1 4 3 -2 6 -13 5 -11 0 -14 -3 -6 -6z"/>
<path d="M1381 829 c-40 -16 -54 -31 -39 -40 20 -13 26 -11 24 7 0 11 12 22
34 30 19 7 28 13 20 13 -8 0 -26 -5 -39 -10z"/>
<path d="M1460 820 c-8 -5 -10 -10 -5 -10 6 0 17 5 25 10 8 5 11 10 5 10 -5 0
-17 -5 -25 -10z"/>
<path d="M3040 1453 c-19 -9 -41 -15 -49 -14 -8 1 -10 -2 -5 -10 5 -8 2 -11
-8 -7 -9 4 -15 0 -15 -8 0 -18 -1 -18 39 6 19 11 44 21 56 23 27 4 54 27 32
27 -8 -1 -31 -8 -50 -17z"/>
<path d="M2749 1498 c-5 -18 -6 -38 -1 -34 7 8 12 36 6 36 -2 0 -4 -1 -5 -2z"/>
<path d="M2700 1419 c0 -5 5 -7 10 -4 6 3 10 8 10 11 0 2 -4 4 -10 4 -5 0 -10
-5 -10 -11z"/>
<path d="M2884 1363 c-17 -8 -36 -23 -42 -34 -16 -25 2 -25 27 0 11 11 23 16
27 13 4 -4 4 -1 0 6 -6 9 -3 12 9 10 10 -2 20 3 22 10 6 15 -4 14 -43 -5z"/>
<path d="M565 3004 c-15 -19 -25 -37 -22 -40 2 -2 16 14 31 36 33 50 28 52 -9
4z"/>
<path d="M2981 2165 c15 -8 29 -23 32 -35 4 -14 10 -18 22 -13 15 5 13 10 -16
34 -19 16 -41 28 -49 28 -8 0 -3 -6 11 -14z"/>
<path d="M3071 2110 c-10 -5 -9 -8 2 -13 7 -3 19 -2 26 3 10 5 9 8 -2 13 -7 3
-19 2 -26 -3z"/>
<path d="M3051 2086 c2 -2 15 -9 29 -15 24 -11 24 -11 6 3 -16 13 -49 24 -35
12z"/>
<path d="M3148 2073 c6 -2 9 -10 6 -15 -5 -7 -2 -8 5 -4 7 5 19 0 27 -10 14
-17 15 -17 10 -1 -3 9 0 17 6 17 25 0 -3 13 -34 16 -18 1 -27 0 -20 -3z"/>
<path d="M1 2010 c-1 -17 80 -252 85 -247 2 2 -16 62 -40 133 -25 71 -45 122
-45 114z"/>
<path d="M1 738 c2 -2 24 -21 49 -43 l45 -40 -40 43 c-21 23 -43 42 -49 42 -5
0 -7 -1 -5 -2z"/>
<path d="M2475 725 c67 -183 81 -200 165 -208 l55 -5 -55 13 c-58 15 -91 42
-67 57 9 6 9 8 0 8 -7 0 -24 21 -39 48 -39 69 -67 110 -59 87z"/>
<path d="M11 693 c7 -12 15 -20 18 -17 3 2 -3 12 -13 22 -17 16 -18 16 -5 -5z"/>
<path d="M40 666 c0 -2 37 -36 83 -76 l82 -73 -75 76 c-65 67 -90 87 -90 73z"/>
<path d="M2253 600 c0 -36 2 -50 4 -32 2 17 2 47 0 65 -2 17 -4 3 -4 -33z"/>
<path d="M2701 506 c2 -2 15 -9 29 -15 24 -11 24 -11 6 3 -16 13 -49 24 -35
12z"/>
<path d="M2870 468 c23 -18 51 -49 63 -68 l20 -35 -39 36 c-35 33 -111 79
-131 79 -4 0 9 -11 28 -25 47 -36 109 -130 109 -168 0 -24 -11 -40 -47 -74
-64 -59 -60 -54 -88 -89 -31 -39 -31 -40 -2 -48 12 -3 42 -22 67 -43 24 -21
39 -30 34 -20 -6 10 -31 33 -56 51 l-46 32 47 54 c29 33 68 63 102 79 60 29
68 47 49 105 -17 52 -68 123 -104 146 -50 30 -53 24 -6 -12z m70 -135 c0 -15
-4 -14 -19 6 -10 14 -26 38 -36 55 -16 30 -16 30 19 -6 20 -21 36 -46 36 -55z
m30 -8 c0 -5 -5 -3 -10 5 -5 8 -10 20 -10 25 0 6 5 3 10 -5 5 -8 10 -19 10
-25z"/>
<path d="M220 487 c0 -10 51 -87 57 -87 5 0 -11 27 -44 75 -7 11 -13 16 -13
12z"/>
<path d="M1009 433 c-13 -16 -12 -17 4 -4 16 13 21 21 13 21 -2 0 -10 -8 -17
-17z"/>
<path d="M2 405 c0 -16 2 -22 5 -12 2 9 2 23 0 30 -3 6 -5 -1 -5 -18z"/>
<path d="M979 383 c-13 -16 -12 -17 4 -4 9 7 17 15 17 17 0 8 -8 3 -21 -13z"/>
<path d="M755 365 c-25 -12 -26 -14 -5 -9 28 7 60 23 45 23 -5 0 -23 -6 -40
-14z"/>
<path d="M2320 346 c0 -2 8 -10 18 -17 15 -13 16 -12 3 4 -13 16 -21 21 -21
13z"/>
<path d="M929 298 c-71 -48 -166 -138 -145 -138 7 0 45 16 84 35 55 28 77 46
101 82 28 43 37 63 27 63 -2 0 -32 -19 -67 -42z"/>
<path d="M2415 290 c19 -8 83 -14 74 -6 -2 2 -24 6 -49 9 -30 4 -38 3 -25 -3z"/>
<path d="M810 280 c-9 -6 -10 -10 -3 -10 6 0 15 5 18 10 8 12 4 12 -15 0z"/>
<path d="M2510 286 c0 -14 39 -24 66 -16 l29 8 -32 1 c-17 1 -38 4 -47 7 -9 3
-16 4 -16 0z"/>
<path d="M439 203 c-13 -16 -12 -17 4 -4 16 13 21 21 13 21 -2 0 -10 -8 -17
-17z"/>
<path d="M2432 209 c-66 -11 -101 -28 -60 -29 l28 0 -30 -55 c-16 -30 -36 -71
-44 -90 l-15 -35 29 2 c35 3 36 5 14 29 -22 24 -13 34 49 56 50 17 146 21 302
11 35 -3 40 0 43 20 4 29 -30 69 -75 88 -36 16 -157 17 -241 3z m69 -58 l24
-19 -30 -7 c-16 -4 -45 -11 -62 -15 -38 -10 -38 -9 -18 30 18 36 51 39 86 11z"/>
<path d="M2760 216 c0 -2 8 -10 18 -17 15 -13 16 -12 3 4 -13 16 -21 21 -21
13z"/>
<path d="M720 150 c-8 -5 -10 -10 -5 -10 6 0 17 5 25 10 8 5 11 10 5 10 -5 0
-17 -5 -25 -10z"/>
<path d="M70 80 c-6 -75 -5 -88 5 -78 3 3 5 39 3 79 l-3 74 -5 -75z"/>
<path d="M2107 99 c5 -16 2 -20 -8 -17 -8 3 -13 10 -12 16 2 6 -4 9 -13 5 -13
-5 -11 -10 9 -32 14 -14 28 -36 32 -49 10 -34 16 -21 6 14 -4 16 -4 41 0 57 5
19 4 27 -6 27 -8 0 -11 -8 -8 -21z"/>
<path d="M684 28 c0 -23 3 -23 15 0 7 13 6 19 -2 19 -7 0 -13 -9 -13 -19z"/>
<path d="M2052 25 c0 -17 2 -22 5 -12 2 9 2 23 0 30 -3 6 -5 -1 -5 -18z"/>
</g>
</svg>
